<?xml version="1.0" standalone="no"?>
<!DOCTYPE svg PUBLIC "-//W3C//DTD SVG 20010904//EN"
 "http://www.w3.org/TR/2001/REC-SVG-20010904/DTD/svg10.dtd">
<svg version="1.0" xmlns="http://www.w3.org/2000/svg"
 width="400.000000pt" height="400.000000pt" viewBox="0 0 400.000000 400.000000"
 preserveAspectRatio="xMidYMid meet">
<metadata>
Created by potrace 1.11, written by Peter Selinger 2001-2013
</metadata>
<g transform="translate(0.000000,400.000000) scale(0.100000,-0.100000)"
fill="#000000" stroke="none">
<path d="M0 2023 l0 -1978 35 58 c19 32 44 67 55 79 11 12 20 26 20 30 0 5 13
23 29 41 16 17 44 49 61 69 17 20 41 40 53 44 34 11 96 74 107 111 7 19 25 41
45 53 18 11 36 32 39 46 4 14 24 44 46 67 22 23 54 62 72 86 47 63 95 98 155
113 29 8 61 24 71 36 27 31 74 48 182 67 105 18 126 27 135 54 3 10 21 26 40
35 19 9 37 20 40 25 7 12 112 71 125 71 5 0 10 -18 10 -39 0 -31 6 -44 30 -65
l31 -25 -3 -138 c-3 -135 -2 -139 25 -185 30 -52 122 -169 185 -237 40 -43 42
-43 89 -36 66 10 164 48 253 98 41 23 100 53 130 66 30 13 68 33 83 44 l29 20
-34 20 c-71 43 -175 112 -246 165 -82 60 -86 86 -7 51 40 -18 66 -21 167 -20
66 0 131 4 146 7 71 16 119 38 184 84 l72 51 13 -53 c14 -54 27 -70 50 -61 7
3 14 -1 14 -8 2 -27 17 46 18 91 1 25 5 52 11 60 26 41 31 -83 9 -244 l-13
-99 57 -53 c68 -64 98 -68 203 -29 36 14 75 25 85 25 15 0 19 7 19 38 0 40
-20 112 -42 152 -44 79 -128 197 -174 244 -11 11 -23 29 -27 39 -10 26 15 22
149 -22 66 -22 135 -42 154 -46 62 -12 200 -75 279 -125 94 -60 209 -176 245
-247 58 -115 135 -391 171 -615 l6 -38 159 0 160 0 0 2000 0 2000 -2000 0
-2000 0 0 -1977z m2400 879 c19 -6 51 -13 71 -16 30 -5 38 -12 52 -49 10 -23
24 -54 31 -68 8 -15 10 -32 6 -39 -4 -7 0 -20 11 -31 11 -11 19 -33 19 -49 0
-17 7 -45 16 -62 13 -25 14 -36 5 -50 -8 -13 -8 -24 -1 -39 15 -27 15 -96 1
-113 -6 -7 -9 -21 -5 -30 4 -10 1 -16 -9 -16 -8 0 -17 -5 -19 -12 -3 -8 -15
-5 -40 10 -42 26 -63 27 -102 7 -15 -8 -39 -15 -51 -15 -13 0 -31 -7 -40 -17
-9 -9 -40 -20 -67 -24 -28 -5 -52 -10 -53 -11 -1 -2 -5 -20 -8 -42 -5 -34 -4
-38 13 -33 25 6 26 -9 3 -22 -37 -20 -4 -20 38 1 24 11 55 24 69 29 23 7 22 7
-10 9 l-35 2 45 20 c34 16 67 22 137 23 51 0 90 -1 88 -4 -7 -7 28 -30 47 -31
9 0 21 -6 25 -13 4 -8 16 -16 26 -20 9 -4 17 -17 17 -29 0 -13 15 -58 34 -101
37 -85 40 -141 16 -277 -6 -36 -12 -87 -14 -115 -1 -27 -5 -57 -9 -65 -12 -31
-25 -86 -32 -130 -3 -24 -10 -49 -14 -55 -5 -5 -11 -23 -15 -40 -16 -66 -53
-123 -130 -197 -44 -43 -88 -78 -98 -78 -18 0 -30 -10 -85 -73 -19 -23 -40
-37 -55 -37 -13 0 -29 -9 -36 -20 -7 -12 -18 -18 -24 -14 -6 4 -16 1 -22 -7
-12 -16 -142 -49 -188 -49 -83 0 -210 49 -271 104 -26 24 -65 48 -86 55 -21 6
-44 18 -51 26 -7 8 -18 15 -25 15 -43 0 -162 135 -187 213 -5 18 -14 42 -19
55 -50 123 -62 165 -63 229 -1 37 4 67 10 71 8 5 7 32 -3 97 -18 118 -12 370
10 392 13 14 19 14 44 1 34 -17 88 -4 105 26 7 12 17 16 33 12 13 -3 36 -1 51
5 16 5 64 10 109 9 124 -2 169 0 175 9 3 5 14 10 24 12 40 8 27 27 -26 37 -81
16 -188 24 -188 14 0 -5 -16 -8 -35 -8 -19 1 -35 4 -35 7 0 15 -44 16 -73 1
-18 -8 -45 -22 -60 -30 -26 -13 -29 -12 -34 7 -3 11 -9 18 -14 16 -4 -3 -6
-12 -2 -20 3 -8 0 -15 -6 -15 -6 0 -11 6 -12 13 -1 6 -4 1 -8 -13 -4 -14 -13
-25 -21 -25 -12 0 -15 17 -14 85 2 137 2 134 34 202 10 21 10 31 2 41 -10 11
-6 20 15 43 22 23 27 26 32 13 14 -39 101 3 101 49 0 5 16 26 35 48 19 21 35
47 35 57 0 30 57 77 92 77 35 0 108 19 122 32 6 4 22 8 38 8 15 0 52 6 82 14
76 20 289 24 311 6 14 -11 19 -11 36 7 21 21 39 20 129 -5z m484 -890 c-4 -15
-11 -38 -16 -52 -14 -38 -38 -171 -38 -211 0 -22 -8 -44 -20 -57 -35 -37 -43
-28 -35 41 21 189 55 301 94 304 18 2 20 -2 15 -25z m-1676 -14 c6 -13 18 -50
27 -82 9 -32 22 -68 30 -80 7 -12 16 -58 19 -104 6 -77 5 -83 -11 -80 -28 5
-47 54 -34 86 14 34 -9 163 -39 219 -11 21 -20 43 -20 50 0 21 16 15 28 -9z"/>
<path d="M2295 2880 c4 -6 11 -8 16 -5 14 9 11 15 -7 15 -8 0 -12 -5 -9 -10z"/>
<path d="M1436 2565 c-9 -26 -7 -32 5 -12 6 10 9 21 6 23 -2 3 -7 -2 -11 -11z"/>
<path d="M2493 2196 l29 -23 -25 -7 c-14 -3 -45 -3 -69 0 -48 7 -114 -8 -143
-31 -19 -16 -19 -16 8 -10 22 4 29 1 36 -18 16 -43 90 -50 115 -12 20 31 36
32 36 3 0 -13 7 -32 15 -42 13 -17 18 -18 40 -6 14 7 25 17 25 21 0 4 14 10
30 14 30 7 36 20 31 69 -2 27 -6 29 -31 16 -18 -10 -25 -8 -43 8 -12 12 -35
25 -52 31 l-30 11 28 -24z"/>
<path d="M1630 2186 c-30 -7 -82 -27 -115 -44 -33 -18 -66 -32 -72 -32 -11 0
-13 -54 -2 -64 19 -18 134 -40 134 -26 0 2 9 4 87 24 68 17 78 22 78 43 0 12
8 15 40 10 49 -6 51 5 5 27 -19 9 -35 22 -35 29 0 9 -2 9 -8 0 -8 -13 -132
-15 -132 -2 0 22 100 25 176 5 46 -12 52 -12 50 1 -6 40 -97 53 -206 29z"/>
<path d="M2142 2180 c-24 -23 -29 -40 -9 -40 18 0 77 38 77 50 0 18 -45 11
-68 -10z"/>
<path d="M1865 2180 c-7 -12 18 -24 37 -18 8 3 5 9 -9 16 -14 8 -24 9 -28 2z"/>
<path d="M1903 1683 c-20 -7 -15 -23 6 -23 10 0 29 -8 42 -18 59 -44 74 -46
148 -29 38 10 84 17 103 17 37 0 58 15 58 40 -1 13 -3 12 -14 -2 -17 -23 -28
-23 -44 2 -18 29 -53 25 -93 -11 -28 -26 -40 -30 -71 -26 -20 3 -50 14 -65 24
-35 24 -54 31 -70 26z m294 -39 c-3 -3 -12 -4 -19 -1 -8 3 -5 6 6 6 11 1 17
-2 13 -5z"/>
<path d="M1853 1413 c81 -14 111 -13 94 4 -4 4 -47 8 -95 10 l-87 2 88 -16z"/>
<path d="M2160 1409 c-30 -5 -31 -7 -8 -8 15 0 38 -6 52 -12 31 -14 124 -3
108 13 -13 13 -102 17 -152 7z"/>
<path d="M2467 1284 c-8 -8 1 -24 14 -24 5 0 9 7 9 15 0 15 -12 20 -23 9z"/>
<path d="M2826 1885 c-9 -26 -7 -32 5 -12 6 10 9 21 6 23 -2 3 -7 -2 -11 -11z"/>
<path d="M2520 694 c0 -8 5 -12 10 -9 6 3 10 10 10 16 0 5 -4 9 -10 9 -5 0
-10 -7 -10 -16z"/>
<path d="M2136 563 c-8 -20 10 -38 44 -46 54 -13 67 33 15 53 -37 14 -52 12
-59 -7z"/>
<path d="M2381 277 c-15 -39 -14 -67 4 -67 8 0 15 3 16 8 0 4 2 15 4 26 2 10
0 28 -5 40 -8 20 -8 20 -19 -7z"/>
<path d="M3370 140 c-107 -26 -295 -78 -435 -121 l-60 -18 334 0 333 -1 -5 23
c-3 12 -11 50 -18 85 -7 34 -18 61 -24 61 -5 -1 -62 -14 -125 -29z"/>
</g>
</svg>
